<svg width="1024" height="1024" viewBox="0 0 1024 1024" fill="none" xmlns="http://www.w3.org/2000/svg">
  <!-- Dark background circle -->
  <circle cx="512" cy="512" r="512" fill="#0a0a0f"/>
  <!-- Shield shape (scaled from 16x16 viewBox to fit ~600px centered) -->
  <g transform="translate(212, 162) scale(37.5)">
    <path d="M8 0L1 3V7.5C1 11.8 4 14.8 8 16C12 14.8 15 11.8 15 7.5V3L8 0Z" fill="white" fill-opacity="0.12"/>
    <path d="M8 0.5L1.5 3.3V7.5C1.5 11.5 4.3 14.3 8 15.4C11.7 14.3 14.5 11.5 14.5 7.5V3.3L8 0.5Z" fill="white" fill-opacity="0.08" stroke="white" stroke-opacity="0.15" stroke-width="0.15"/>
  </g>
  <!-- Lightning bolt (accent color, scaled) -->
  <g transform="translate(212, 162) scale(37.5)">
    <path d="M9.2 3L5.2 8.8H7.5L6.4 13L11 7.2H8.5L9.2 3Z" fill="#7C5CFF"/>
  </g>
  <!-- Subtle glow behind shield -->
  <circle cx="512" cy="512" r="300" fill="#7C5CFF" fill-opacity="0.06"/>
</svg>
